# xmcd
#
# Track frame offsets: 
#        150
#        36415
#        75615
#        120410
#        163551
#        205930
#        235385
#        273075
#        295330
#        320039
#
# Disc length: 4531 seconds
#
# Revision: 0
# Processed by: cddbd v1.5.2PL0 Copyright (c) Steve Scherf et al.
# Submitted via: ExactAudioCopy v1.3
#
DISCID=8b11b10a
DTITLE=21 Blue - Live From Heartwood
DYEAR=2019
DGENRE=Blues
TTITLE0=Spoonful (Live)
TTITLE1=The Chicken (Live)
TTITLE2=S.O.L. Blues (Live)
TTITLE3=African Nights (Live)
TTITLE4=21 Blues (Live)
TTITLE5=Black Magic Woman (Live)
TTITLE6=911-6969 (Live)
TTITLE7=Spoonful (Radio Edit) (Live)
TTITLE8=S.O.L. Blues (Radio Edit) (Live)
TTITLE9=911-6969 (Radio Edit) (Live)
EXTD=
EXTT0=
EXTT1=
EXTT2=
EXTT3=
EXTT4=
EXTT5=
EXTT6=
EXTT7=
EXTT8=
EXTT9=
PLAYORDER=
